<svg id="Capa_1" data-name="Capa 1" xmlns="http://www.w3.org/2000/svg" viewBox="0 0 40 40"><defs><style>.cls-1{fill:#fff;}.cls-2{fill:#1877f2;}</style></defs><ellipse class="cls-1" cx="19.91" cy="20.1" rx="19.59" ry="19.58"/><path class="cls-2" d="M39.51,20.08A19.6,19.6,0,1,0,16.85,39.43V25.74h-5V20.08h5V15.76c0-4.91,2.93-7.62,7.4-7.62a30.31,30.31,0,0,1,4.39.38v4.82H26.17c-2.44,0-3.19,1.51-3.19,3.06v3.68h5.43l-.87,5.66H23V39.43A19.6,19.6,0,0,0,39.51,20.08Z"/><path class="cls-2" d="M39.51,20.08A19.6,19.6,0,1,0,16.85,39.43V25.74h-5V20.08h5V15.76c0-4.91,2.93-7.62,7.4-7.62a30.31,30.31,0,0,1,4.39.38v4.82H26.17c-2.44,0-3.19,1.51-3.19,3.06v3.68h5.43l-.87,5.66H23V39.43A19.6,19.6,0,0,0,39.51,20.08Z"/></svg>