<?xml version="1.0" encoding="utf-8"?>
<!-- Generator: Adobe Illustrator 26.2.1, SVG Export Plug-In . SVG Version: 6.00 Build 0)  -->
<svg version="1.1" id="Capa_1" xmlns="http://www.w3.org/2000/svg" xmlns:xlink="http://www.w3.org/1999/xlink" x="0px" y="0px"
	 viewBox="0 0 762 137" style="enable-background:new 0 0 762 137;" xml:space="preserve">
<style type="text/css">
	.st0{fill:#232953;}
	.st1{fill:#D6B15F;}
	.st2{fill:none;stroke:#232953;stroke-width:1.6513;stroke-miterlimit:10;}
</style>
<g>
	<g>
		<g>
			<g>
				<g>
					<g>
						<rect x="24.3" y="20.5" class="st0" width="102.4" height="96.1"/>
						<g>
							<path class="st1" d="M92.5,41l0,2l0.9,1.7l18,23.2l6.6,4.1l-1.7,1.3l-6-1.8L109,83.4l5.2,3.4l-4.7,5l1.2,7l-4.2,2.5l1.1,5.1
								l-3.7-5.9l0.9-4.4l-1.4-2.1l-4.2-2.3l-2.6-0.1l4.2,3.2l0.1,3.9l-4-0.4l-6.5-3l2.9-6.7L93,86L77.8,73.8l0,0.2l-10.4-4.3
								l-1.7-8.1L63.7,61l-9.8-7.3l-1.5,0.1l10.3,8.5l-5.5,8.5l-6.5-6.6l-10.3-4.1l-1-9.4l0.5-2.5l4.2-2.8l-3.9-5.4l-2-0.8l0-1.4
								l4-0.2l1.3-5.2l14.2,4.5l11.8,0.3l13.8,4.4l8.4-2.5L92.5,41z"/>
						</g>
					</g>
				</g>
			</g>
		</g>
		<g>
			<g>
				<path class="st0" d="M149.9,64.4v-17h3.7v17H149.9z"/>
				<path class="st0" d="M177.9,64.4h-3.7l-9.6-11.3v11.3H161v-17h3.7l9.6,11.4V47.4h3.7V64.4z"/>
				<path class="st0" d="M201.4,59c0,4.8-4.7,6.1-8.5,6.1c-2.1,0-7.7,0-8.9-5l3.3-1.8c1.4,2.7,3.6,2.9,5.2,2.9
					c1.5,0,4.8-0.1,4.8-1.9c0-3.7-13.2,0.8-13.2-6.9c0-3.7,4.3-5.6,8.5-5.6c4,0,7.9,1.7,8.3,5.1l-3,1.2c-0.6-2.1-3-3-5.2-3
					c-2.2,0-4.2,0.8-4.2,1.9C188.5,55.6,201.4,51.6,201.4,59z"/>
				<path class="st0" d="M223.4,51h-7.2v13.4h-3.7V51h-7.2v-3.6h18V51z"/>
				<path class="st0" d="M228.7,64.4v-17h3.7v17H228.7z"/>
				<path class="st0" d="M255.7,51h-7.2v13.4h-3.7V51h-7.2v-3.6h18V51z"/>
				<path class="st0" d="M260.6,58.1V47.4h3.7v9.8c0,2.7,1.4,4.1,4.6,4.1s4.6-1.4,4.6-4.1v-9.8h3.7v10.7c0,4.1-3.1,6.9-8.2,6.9
					S260.6,62.2,260.6,58.1z"/>
				<path class="st0" d="M300,51h-7.2v13.4h-3.7V51H282v-3.6h18V51z"/>
				<path class="st0" d="M304.1,56c0-5.6,3.6-9.2,9-9.2c5.4,0,9.1,3.6,9.1,9c0,5.6-3.6,9.2-9,9.2C307.7,65,304.1,61.4,304.1,56z
					 M313.1,50.3c-3.2,0-5.1,2-5.1,5.3c0,3.6,1.9,5.8,5.2,5.8c3.2,0,5.2-2,5.2-5.3C318.3,52.6,316.3,50.3,313.1,50.3z"/>
				<path class="st0" d="M347.6,57.9l4.9-10.4h4.7v17h-3.7V53.9l-5.1,10.5h-1.7l-5.1-10.5v10.5H338v-17h4.7L347.6,57.9z"/>
				<path class="st0" d="M364.6,64.4v-17h3.7v17H364.6z"/>
				<path class="st0" d="M377.9,64.4h-4.5l7.8-9l-7.2-7.9h5l4.8,5.4l4.8-5.4h5l-7.2,7.9l7.8,9h-4.5l-5.8-6.7L377.9,64.4z"/>
				<path class="st0" d="M415.1,51h-7.2v13.4h-3.7V51h-7.2v-3.6h18V51z"/>
				<path class="st0" d="M419.2,56c0-5.6,3.6-9.2,9-9.2c5.4,0,9.1,3.6,9.1,9c0,5.6-3.6,9.2-9,9.2C422.8,65,419.2,61.4,419.2,56z
					 M428.2,50.3c-3.2,0-5.1,2-5.1,5.3c0,3.6,1.9,5.8,5.2,5.8c3.2,0,5.2-2,5.2-5.3C433.4,52.6,431.4,50.3,428.2,50.3z"/>
				<path class="st0" d="M166.9,78.9c0,5.2-3.3,9-8.5,9h-8.4v-17h8.4C163.4,70.9,166.9,74.2,166.9,78.9z M157.1,84.5
					c3.6,0,5.7-2.2,5.7-5.4c0-3-2.1-4.5-5.7-4.5h-3.5v10H157.1z"/>
				<path class="st0" d="M189.1,87.9H173v-17h15.7v3.6h-12v2.7h9.9V81h-9.9v3.3h12.5V87.9z"/>
				<path class="st0" d="M217.5,83.8h-8.9c-0.6,1.3-1.2,2.7-1.9,4.1h-4.2l8.3-17h4.6l8.3,17h-4.2L217.5,83.8z M210.4,80.3h5.5
					l-2.4-5.1h-0.6C212.6,75.4,211.7,77.3,210.4,80.3z"/>
				<path class="st0" d="M223.6,70.9h4.6l6,7.7l6-7.7h4.6L236,82.2v5.7h-3.7v-5.7L223.6,70.9z"/>
				<path class="st0" d="M249.3,81.6V70.9h3.7v9.8c0,2.7,1.4,4.1,4.6,4.1s4.6-1.4,4.6-4.1v-9.8h3.7v10.7c0,4.1-3.1,6.9-8.2,6.9
					S249.3,85.7,249.3,81.6z"/>
				<path class="st0" d="M289.7,78.9c0,5.2-3.3,9-8.5,9h-8.4v-17h8.4C286.2,70.9,289.7,74.2,289.7,78.9z M279.9,84.5
					c3.6,0,5.7-2.2,5.7-5.4c0-3-2.1-4.5-5.7-4.5h-3.5v10H279.9z"/>
				<path class="st0" d="M307.8,83.8h-8.9c-0.6,1.3-1.2,2.7-1.9,4.1h-4.2l8.3-17h4.6l8.3,17h-4.2L307.8,83.8z M300.6,80.3h5.5
					l-2.4-5.1H303C302.9,75.4,302,77.3,300.6,80.3z"/>
				<path class="st0" d="M344.7,82.5c0,4.8-4.7,6.1-8.5,6.1c-2.1,0-7.7,0-8.9-5l3.3-1.8c1.4,2.7,3.6,2.9,5.2,2.9
					c1.5,0,4.8-0.1,4.8-1.9c0-3.7-13.2,0.8-13.2-6.9c0-3.7,4.3-5.6,8.5-5.6c4,0,7.9,1.7,8.3,5.1l-3,1.2c-0.6-2.1-3-3-5.2-3
					c-2.2,0-4.2,0.8-4.2,1.9C331.8,79.1,344.7,75.2,344.7,82.5z"/>
				<path class="st0" d="M349.5,79.5c0-5.6,3.6-9.2,9-9.2c5.4,0,9.1,3.6,9.1,9c0,5.6-3.6,9.2-9,9.2
					C353.2,88.5,349.5,84.9,349.5,79.5z M358.5,73.8c-3.2,0-5.1,2-5.1,5.3c0,3.6,1.9,5.8,5.2,5.8c3.2,0,5.2-2,5.2-5.3
					C363.8,76.1,361.8,73.8,358.5,73.8z"/>
				<path class="st0" d="M381.9,74c-3,0-5.4,1.8-5.4,5.2c0,3.5,2.5,5.4,5.8,5.4c2.5,0,4.5-1.6,5-4l3,1.4c-0.5,4.7-4.8,6.4-8.6,6.4
					c-5.4,0-9.3-3.9-9.3-9.2c0-5.3,3.8-8.8,9.5-8.8c4.5,0,7.6,2.1,8.5,5.7l-3.3,1.3C386.3,75,383.8,74,381.9,74z"/>
				<path class="st0" d="M396.2,87.9v-17h3.7v17H396.2z"/>
				<path class="st0" d="M420,83.8h-8.9c-0.6,1.3-1.2,2.7-1.9,4.1H405l8.3-17h4.6l8.3,17H422L420,83.8z M412.9,80.3h5.5l-2.4-5.1
					h-0.6C415.1,75.4,414.2,77.3,412.9,80.3z"/>
				<path class="st0" d="M446.2,87.9h-15.1v-17h3.7v13.4h11.4V87.9z"/>
			</g>
		</g>
	</g>
	<g>
		<line class="st2" x1="491.3" y1="20" x2="491.3" y2="117.5"/>
		<g>
			<g>
				<path class="st0" d="M528.4,52.9c0,3.5,2.5,5.5,5.8,5.5c2.6,0,4.5-1.5,5-4H534v-2.3h8c0.2,6-3.4,8.9-8.1,8.9
					c-4.8,0-8.3-3.4-8.3-8.1c0-5.1,3.6-8,8.3-8c3.1,0,6.6,1.2,7.5,5l-2.3,0.8c-0.8-2.5-3.1-3.3-5.3-3.3
					C530.6,47.4,528.4,49.5,528.4,52.9z"/>
				<path class="st0" d="M546.6,53c0-5,3.2-8.2,8-8.2c4.8,0,8.1,3.2,8.1,8c0,5-3.2,8.2-8,8.2C549.8,61,546.6,57.8,546.6,53z
					 M554.6,47.3c-3.3,0-5.3,2.1-5.3,5.5c0,3.5,2.1,5.8,5.4,5.8c3.3,0,5.4-2.1,5.4-5.5C560,49.6,557.9,47.3,554.6,47.3z"/>
				<path class="st0" d="M575.9,45.4c3.9,0,6.8,0.5,6.8,4c0,1.3-0.6,2.2-1.5,2.9c1.1,0.8,1.8,1.9,1.8,3.2c0,3.8-3.1,5-6.1,5h-8.4
					V45.4C569.9,45.4,573.4,45.4,575.9,45.4z M577.7,51.4c1.4,0,2.2-1,2.2-1.8c0-0.9-0.8-1.7-2.5-1.7c-1.2,0-2.8,0-6.2,0.1v3.5
					H577.7z M571.2,58.1c0.8,0,4.7,0,5.9,0c1.6,0,3.1-0.8,3.1-2.4c0-1.3-1.4-1.8-3-1.8h-6V58.1z"/>
				<path class="st0" d="M589.2,60.5V45.4h2.6v15.1H589.2z"/>
				<path class="st0" d="M612.9,60.5h-14.2V45.4h13.7v2.5h-11.2v3.5h9.3V54h-9.3v4h11.6V60.5z"/>
				<path class="st0" d="M627,54.4h-6v6.1h-2.6V45.4h9.4c3.7,0,5.8,1.8,5.8,4.4c0,2.3-1.6,3.9-3.8,4.2c0.8,2.7,1.3,4.3,2.5,4.3
					c0.4,0,0.9-0.1,1.3-0.3v2.5c-0.9,0.3-1.6,0.4-2.3,0.4C628.8,60.9,628.3,57.8,627,54.4z M627.7,52.1c1.1,0,2.8-0.8,2.8-2.2
					c0-1.3-1-2-3-2c-1.9,0-3.8,0-6.4,0v4.2H627.7z"/>
				<path class="st0" d="M654.7,60.5H652l-9.9-11.1v11.1h-2.6V45.4h2.6l9.9,11.3V45.4h2.6V60.5z"/>
				<path class="st0" d="M660.6,53c0-5,3.2-8.2,8-8.2c4.8,0,8.1,3.2,8.1,8c0,5-3.2,8.2-8,8.2C663.8,61,660.6,57.8,660.6,53z
					 M668.6,47.3c-3.3,0-5.3,2.1-5.3,5.5c0,3.5,2.1,5.8,5.4,5.8c3.3,0,5.4-2.1,5.4-5.5C674,49.6,671.9,47.3,668.6,47.3z"/>
				<path class="st0" d="M541.9,78.7c0,4.6-3,8-7.6,8h-7.5V71.6l7.5,0C538.8,71.6,541.9,74.5,541.9,78.7z M533.5,84.3
					c3.5,0,5.6-2.3,5.6-5.5c0-3-2.1-4.7-5.6-4.7l-4.1,0v10.2H533.5z"/>
				<path class="st0" d="M561.9,86.7h-14.2V71.6h13.7v2.5h-11.2v3.5h9.3v2.6h-9.3v4h11.6V86.7z"/>
				<path class="st0" d="M583.2,73.7c-3.2,0-5.6,1.9-5.6,5.3c0,3.5,2.5,5.6,5.9,5.6c2.5,0,4.7-1.4,5.1-4c0.7,0.3,1.4,0.6,2.2,0.9
					c-0.5,4.2-4.2,5.7-7.6,5.7c-4.8,0-8.3-3.5-8.3-8.2c0-4.9,3.5-7.9,8.4-7.9c3.6,0,6.8,1.6,7.6,5.1l-2.3,0.9
					C587.8,74.7,585.3,73.7,583.2,73.7z"/>
				<path class="st0" d="M595.3,79.2c0-5,3.2-8.2,8-8.2c4.8,0,8.1,3.2,8.1,8c0,5-3.2,8.2-8,8.2C598.5,87.2,595.3,84,595.3,79.2z
					 M603.3,73.5c-3.3,0-5.3,2.1-5.3,5.5c0,3.5,2.1,5.8,5.4,5.8c3.3,0,5.4-2.1,5.4-5.5C608.7,75.8,606.6,73.5,603.3,73.5z"/>
				<path class="st0" d="M631.5,81.9c0,4.1-4.2,5.3-7.6,5.3c-2.5,0-7-0.4-7.9-4.5l2.3-1.1c1,2.5,3.3,2.9,5.3,2.9c1.8,0,5-0.4,5-2.5
					c0-3.9-12.5,0.4-12.5-6.1c0-3.5,4.2-4.9,7.5-4.9c3.4,0,7,1.1,7.5,4.5l-2.1,0.8c-0.6-2.3-3.1-3-5.3-3c-2.1,0-4.5,0.8-4.5,2.3
					C619.2,79.3,631.5,75.5,631.5,81.9z"/>
				<path class="st0" d="M651.3,74.1h-6.7v12.6H642V74.1h-6.7v-2.5h16V74.1z"/>
				<path class="st0" d="M665.7,82.4h-8.2c-0.6,1.3-1.3,2.8-2.1,4.3h-2.9l7.4-15.1h3.3l7.4,15.1h-2.9L665.7,82.4z M658.7,79.9h5.8
					l-2.7-5.5h-0.4L658.7,79.9z"/>
				<path class="st0" d="M692.6,80.6h-6v6.1h-2.6V71.6h9.4c3.7,0,5.8,1.8,5.8,4.4c0,2.3-1.6,3.9-3.8,4.2c0.8,2.7,1.3,4.3,2.5,4.3
					c0.4,0,0.9-0.1,1.3-0.3v2.5c-0.9,0.3-1.6,0.4-2.3,0.4C694.5,87.1,694,84,692.6,80.6z M693.4,78.3c1.1,0,2.8-0.8,2.8-2.2
					c0-1.3-1-2-3-2c-1.9,0-3.8,0-6.4,0v4.2H693.4z"/>
				<path class="st0" d="M705.2,86.7V71.6h2.6v15.1H705.2z"/>
				<path class="st0" d="M722,73.7c-3.2,0-5.6,1.9-5.6,5.3c0,3.5,2.5,5.6,5.9,5.6c2.5,0,4.7-1.4,5.1-4c0.7,0.3,1.4,0.6,2.2,0.9
					c-0.5,4.2-4.2,5.7-7.6,5.7c-4.8,0-8.3-3.5-8.3-8.2c0-4.9,3.5-7.9,8.4-7.9c3.6,0,6.8,1.6,7.6,5.1l-2.3,0.9
					C726.6,74.7,724.2,73.7,722,73.7z"/>
				<path class="st0" d="M746.2,82.4h-8.2c-0.6,1.3-1.3,2.8-2.1,4.3h-2.9l7.4-15.1h3.3l7.4,15.1h-2.9L746.2,82.4z M739.3,79.9h5.8
					l-2.7-5.5h-0.4L739.3,79.9z"/>
			</g>
		</g>
	</g>
</g>
</svg>
