<svg id="Capa_1" data-name="Capa 1" xmlns="http://www.w3.org/2000/svg" viewBox="0 0 40 40"><defs><style>.cls-1{fill:#1d9bf0;}.cls-2{fill:#fff;}</style></defs><circle class="cls-1" cx="20" cy="20" r="19.5"/><path class="cls-2" d="M30,16.15c0,.21,0,.42,0,.64A14,14,0,0,1,8.44,28.56a11.71,11.71,0,0,0,1.19.06,9.86,9.86,0,0,0,6.1-2.1,4.92,4.92,0,0,1-4.59-3.41,5.52,5.52,0,0,0,.92.08,5.09,5.09,0,0,0,1.3-.17A4.9,4.9,0,0,1,9.42,18.2v-.06a4.85,4.85,0,0,0,2.22.62,4.92,4.92,0,0,1-1.52-6.57,13.94,13.94,0,0,0,10.13,5.14,5.2,5.2,0,0,1-.13-1.12,4.92,4.92,0,0,1,8.51-3.36,9.84,9.84,0,0,0,3.11-1.19,4.89,4.89,0,0,1-2.16,2.71,10,10,0,0,0,2.83-.76A10.59,10.59,0,0,1,30,16.15Z"/></svg>