<svg id="Capa_1" data-name="Capa 1" xmlns="http://www.w3.org/2000/svg" viewBox="0 0 40 40"><defs><style>.cls-1{fill:red;}.cls-2{fill:#fff;}</style></defs><circle class="cls-1" cx="20" cy="20" r="19.5"/><path class="cls-2" d="M33.33,13.28a3.48,3.48,0,0,0-2.46-2.48C28.7,10.22,20,10.22,20,10.22s-8.7,0-10.87.58a3.48,3.48,0,0,0-2.46,2.48A36.13,36.13,0,0,0,6.08,20a36.13,36.13,0,0,0,.59,6.74A3.43,3.43,0,0,0,9.13,29.2c2.17.58,10.87.58,10.87.58s8.7,0,10.87-.58a3.43,3.43,0,0,0,2.46-2.44A36.13,36.13,0,0,0,33.92,20,36.13,36.13,0,0,0,33.33,13.28ZM17.15,24.16V15.88L24.43,20l-7.28,4.14Z"/></svg>