<svg id="Capa_1" data-name="Capa 1" xmlns="http://www.w3.org/2000/svg" xmlns:xlink="http://www.w3.org/1999/xlink" viewBox="0 0 40 40"><defs><style>.cls-1{fill:none;}.cls-2{clip-path:url(#clip-path);}.cls-3{fill:url(#Degradado_sin_nombre_3);}.cls-4{fill:url(#Degradado_sin_nombre_2);}.cls-5{fill:#fff;}</style><clipPath id="clip-path"><circle class="cls-1" cx="20" cy="20" r="19.5"/></clipPath><radialGradient id="Degradado_sin_nombre_3" cx="144.42" cy="-558.31" r="19.93" gradientTransform="matrix(0, -1.98, -1.84, 0, -1018.8, 329.16)" gradientUnits="userSpaceOnUse"><stop offset="0" stop-color="#fd5"/><stop offset="0.1" stop-color="#fd5"/><stop offset="0.5" stop-color="#ff543e"/><stop offset="1" stop-color="#c837ab"/></radialGradient><radialGradient id="Degradado_sin_nombre_2" cx="91.62" cy="-411.01" r="19.93" gradientTransform="matrix(0.17, 0.87, 3.58, -0.72, 1449.63, -371.49)" gradientUnits="userSpaceOnUse"><stop offset="0" stop-color="#3771c8"/><stop offset="0.13" stop-color="#3771c8"/><stop offset="1" stop-color="#60f" stop-opacity="0"/></radialGradient></defs><g class="cls-2"><path class="cls-3" d="M20,0C11.7,0,9.26,0,8.79.05A9.8,9.8,0,0,0,4.86,1,8,8,0,0,0,2.57,2.72,8.57,8.57,0,0,0,.26,7.56a37.46,37.46,0,0,0-.18,5.89v6.47c0,8.32,0,10.75.05,11.22a10.07,10.07,0,0,0,1,3.85,8.41,8.41,0,0,0,5.44,4.45,13.91,13.91,0,0,0,2.9.38c.49,0,5.52,0,10.55,0s10.07,0,10.55,0a14.24,14.24,0,0,0,3-.39A8.34,8.34,0,0,0,39,35a9.63,9.63,0,0,0,.94-3.78c0-.34,0-5.81,0-11.28s0-10.93,0-11.28a9.61,9.61,0,0,0-1-3.81,7.73,7.73,0,0,0-1.7-2.34A8.55,8.55,0,0,0,32.39.19C31.45.05,31.27,0,26.5,0Z"/><path class="cls-4" d="M20,0C11.7,0,9.26,0,8.79.05A9.8,9.8,0,0,0,4.86,1,8,8,0,0,0,2.57,2.72,8.57,8.57,0,0,0,.26,7.56a37.46,37.46,0,0,0-.18,5.89v6.47c0,8.32,0,10.75.05,11.22a10.07,10.07,0,0,0,1,3.85,8.41,8.41,0,0,0,5.44,4.45,13.91,13.91,0,0,0,2.9.38c.49,0,5.52,0,10.55,0s10.07,0,10.55,0a14.24,14.24,0,0,0,3-.39A8.34,8.34,0,0,0,39,35a9.63,9.63,0,0,0,.94-3.78c0-.34,0-5.81,0-11.28s0-10.93,0-11.28a9.61,9.61,0,0,0-1-3.81,7.73,7.73,0,0,0-1.7-2.34A8.55,8.55,0,0,0,32.39.19C31.45.05,31.27,0,26.5,0Z"/></g><path class="cls-5" d="M20,13.17A6.83,6.83,0,1,0,26.83,20,6.82,6.82,0,0,0,20,13.17Zm0,11.27A4.44,4.44,0,1,1,24.44,20,4.45,4.45,0,0,1,20,24.44Zm8.71-11.55a1.6,1.6,0,1,1-1.6-1.59A1.6,1.6,0,0,1,28.71,12.89Zm4.52,1.62a7.91,7.91,0,0,0-2.15-5.59A7.94,7.94,0,0,0,25.5,6.77c-2.2-.12-8.8-.12-11,0A7.9,7.9,0,0,0,8.92,8.92,7.88,7.88,0,0,0,6.77,14.5c-.13,2.2-.13,8.79,0,11a7.91,7.91,0,0,0,2.15,5.59,7.94,7.94,0,0,0,5.58,2.15c2.2.12,8.8.12,11,0a7.9,7.9,0,0,0,5.58-2.15,7.91,7.91,0,0,0,2.15-5.59c.13-2.2.13-8.78,0-11ZM30.39,27.85a4.48,4.48,0,0,1-2.53,2.54c-1.76.69-5.92.53-7.86.53s-6.1.16-7.85-.53a4.48,4.48,0,0,1-2.53-2.54c-.7-1.75-.54-5.91-.54-7.85s-.15-6.11.54-7.85a4.48,4.48,0,0,1,2.53-2.54c1.75-.69,5.91-.53,7.85-.53s6.11-.16,7.86.53a4.51,4.51,0,0,1,2.53,2.54c.7,1.75.54,5.91.54,7.85S31.09,26.11,30.39,27.85Z"/></svg>